<?xml version="1.0" encoding="UTF-8" standalone="no"?>
<!-- Created with Inkscape (http://www.inkscape.org/) -->

<svg
   width="1202.9805"
   height="1925.8921"
   viewBox="0 0 318.28858 509.55895"
   version="1.1"
   id="svg5"
   xml:space="preserve"
   xmlns="http://www.w3.org/2000/svg"
   xmlns:svg="http://www.w3.org/2000/svg"><defs
     id="defs2"><linearGradient
       id="linearGradient6950"><stop
         style="stop-color:#f99f34;stop-opacity:1;"
         offset="0"
         id="stop6948" /></linearGradient></defs><g
     id="g39"
     transform="translate(-1462.1559,-925.69463)"><path
       d="m 1475.6636,1021.3296 c -8.8192,20.0165 -13.4174,41.6362 -13.5077,63.5093 0.2316,34.59 11.7268,68.1629 32.7453,95.6355 29.8921,39.7604 76.656,63.2568 126.399,63.5087 63.2247,0.031 120.435,37.4852 145.7513,95.42 8.7508,-19.9584 13.3094,-41.5014 13.393,-63.2938 -0.01,-34.7114 -11.3687,-68.4676 -32.3448,-96.1242 -30.0787,-39.6884 -77.001,-63.009 -126.7995,-63.02 -63.2342,-0.1139 -120.4021,-37.6544 -145.6366,-95.6355 z"
       style="fill:#f1563e;fill-opacity:1;stroke-width:2.11667"
       id="path36" /><path
       d="m 1621.3002,925.69465 c -63.2341,0.11378 -120.402,37.65411 -145.6366,95.63495 25.2345,57.9811 82.4024,95.5216 145.6366,95.6355 -17.743,2e-4 -32.1266,-14.3832 -32.1267,-32.1262 10e-5,-17.743 14.3837,-32.1264 32.1267,-32.1262 17.7428,10e-5 32.1261,14.3834 32.1262,32.1262 h 62.7543 64.2638 c -0.024,-21.9375 -4.5843,-43.633 -13.393,-63.7243 -25.3163,-57.9348 -82.5266,-95.38905 -145.7513,-95.41995 z"
       style="fill:#00a8a8;fill-opacity:1;stroke-width:2.11667"
       id="path37" /><path
       d="m 1494.725,1180.4745 c -20.9554,27.4948 -32.388,61.0652 -32.5691,95.6349 0.1922,21.8958 4.9008,43.5164 13.8312,63.5093 25.1875,57.8735 82.1965,95.3929 145.3131,95.6349 63.3074,-0.034 120.5744,-37.5874 145.8381,-95.6355 -25.2639,-58.0478 -82.5308,-95.6013 -145.8381,-95.635 17.7428,10e-5 32.1261,14.3835 32.1262,32.1263 -10e-5,17.7427 -14.3834,32.1261 -32.1262,32.1262 -17.7428,-10e-5 -32.1261,-14.3835 -32.1262,-32.1262 10e-5,-17.7428 14.3834,-32.1262 32.1262,-32.1263 -49.8051,-0.1969 -96.6457,-23.6991 -126.5752,-63.5086 z"
       style="fill:#f99f34;fill-opacity:1;stroke-width:2.11667"
       id="path38" /></g></svg>
