<?xml version="1.0" encoding="UTF-8" standalone="no"?>
<!-- Created with Inkscape (http://www.inkscape.org/) -->

<svg
   width="4933.0078"
   height="1928.4596"
   viewBox="0 0 1305.1916 510.23827"
   version="1.1"
   id="svg5"
   xml:space="preserve"
   xmlns="http://www.w3.org/2000/svg"
   xmlns:svg="http://www.w3.org/2000/svg"><defs
     id="defs2"><linearGradient
       id="linearGradient6950"><stop
         style="stop-color:#f99f34;stop-opacity:1;"
         offset="0"
         id="stop6948" /></linearGradient></defs><g
     id="g38"
     transform="translate(-405.7379,-130.00459)"><path
       d="m 419.2456,225.63959 c -8.8192,20.01654 -13.4174,41.63621 -13.5077,63.5093 0.2316,34.59003 11.7268,68.16283 32.7453,95.6355 29.8921,39.76043 76.656,63.25682 126.399,63.50879 63.2247,0.0309 120.435,37.48515 145.7513,95.42001 8.7508,-19.95841 13.3094,-41.50142 13.393,-63.29381 -0.01,-34.71144 -11.3687,-68.46775 -32.3448,-96.12436 -30.0787,-39.68833 -77.001,-63.00895 -126.7995,-63.01993 -63.2342,-0.11387 -120.4021,-37.65443 -145.6366,-95.6355 z"
       style="fill:#f1563e;fill-opacity:1;stroke-width:2.11667"
       id="path33" /><path
       d="m 564.8822,130.0046 c -63.2341,0.11378 -120.402,37.65411 -145.6366,95.63499 25.2345,57.98107 82.4024,95.52163 145.6366,95.6355 -17.743,2e-4 -32.1266,-14.38323 -32.1267,-32.1262 10e-5,-17.74298 14.3837,-32.1264 32.1267,-32.12621 17.7428,9e-5 32.1261,14.38343 32.1262,32.12621 h 62.7543 64.2638 c -0.024,-21.93748 -4.5843,-43.63298 -13.393,-63.72428 C 685.3172,167.48975 628.1069,130.0355 564.8822,130.0046 Z"
       style="fill:#00a8a8;fill-opacity:1;stroke-width:2.11667"
       id="path34" /><path
       d="m 438.307,384.78448 c -20.9554,27.4948 -32.388,61.0653 -32.5691,95.635 0.1922,21.8958 4.9008,43.5164 13.8312,63.5093 25.1875,57.8735 82.1965,95.3929 145.3131,95.6349 63.3074,-0.034 120.5744,-37.5874 145.8381,-95.6355 -25.2639,-58.0478 -82.5308,-95.6013 -145.8381,-95.635 17.7428,10e-5 32.1261,14.3835 32.1262,32.1263 -1e-4,17.7427 -14.3834,32.1261 -32.1262,32.1262 -17.7428,-10e-5 -32.1261,-14.3835 -32.1262,-32.1262 10e-5,-17.7428 14.3834,-32.1262 32.1262,-32.1263 -49.8051,-0.1969 -96.6457,-23.6991 -126.5752,-63.5087 z"
       style="fill:#f99f34;fill-opacity:1;stroke-width:2.11667"
       id="path35" /><path
       d="m 855.40518,640.24289 q -27.29903,0 -47.19531,-8.81176 -19.43262,-8.81098 -31.92536,-23.91539 -12.49353,-15.52492 -18.50846,-34.40602 -5.55207,-19.30005 -5.55207,-39.86003 0,-30.20961 12.49274,-53.70607 12.49274,-23.49645 35.62753,-36.92277 23.13478,-13.42632 54.59807,-13.42632 21.74696,0 37.94108,7.13288 16.65698,7.13288 27.29903,18.88111 10.64205,11.3285 16.19412,25.17454 5.55207,13.84604 5.55207,26.85264 0,22.23808 -11.10414,32.72715 -11.10492,10.48985 -28.68764,10.48985 h -92.53836 q 0,14.26576 6.4778,24.33589 6.93989,10.06935 17.58194,15.94386 11.10491,5.454 23.59765,5.454 9.71632,0 16.65699,-1.25838 7.40275,-1.25915 12.49274,-2.93725 5.55206,-2.09781 9.71631,-4.19563 4.62711,-2.09781 8.32849,-3.35697 3.70138,-1.67809 7.40354,-1.67809 5.55207,-0.4158 10.17918,2.51753 4.62633,2.93725 8.32849,9.23069 2.77564,4.19563 3.70138,7.5526 0.92495,2.93726 0.92495,6.71316 0,7.97232 -10.64126,15.1052 -10.64205,7.13288 -28.68764,11.74823 -18.04481,4.61535 -40.25386,4.61535 z M 809.13561,519.82337 h 67.0908 q 7.86563,0 11.10414,-2.09781 3.70216,-2.09782 3.70216,-10.07014 0,-9.23069 -4.62711,-16.78329 -4.62712,-7.97153 -12.95561,-12.58688 -7.86563,-4.61535 -18.97054,-4.61535 -13.41848,0 -24.05974,6.29344 -10.17997,6.29344 -15.73204,16.7833 -5.55206,10.07013 -5.55206,23.07673 z"
       id="path1921"
       style="font-weight:500;font-stretch:semi-condensed;font-size:192px;font-family:'Fredoka SemiCondensed';-inkscape-font-specification:'Fredoka SemiCondensed,  Medium Semi-Condensed';white-space:pre;fill:#00a8a8;fill-opacity:1;stroke-width:2.64583;stroke-linejoin:round;stroke-miterlimit:0" /><path
       d="m 1070.5605,637.72535 q -19.8963,0 -34.2397,-4.19641 -13.8805,-4.19563 -23.1348,-12.58688 -8.7913,-8.39204 -12.9556,-20.97892 -4.16345,-13.00738 -4.16345,-30.62933 V 386.39725 q 0,-7.5526 1.38782,-13.0066 1.38782,-5.45478 6.93993,-8.39204 6.0157,-3.35619 18.9705,-3.35619 12.4927,0 18.5085,3.35619 6.0149,3.35697 7.4027,9.2307 1.3878,5.45478 1.3878,12.16794 v 180.41902 q 0,7.13288 0.9258,11.74823 1.3878,4.19563 3.7014,6.71316 2.3135,2.51753 6.0149,3.77591 4.1642,0.83944 10.1792,0.83944 7.8664,0 13.4184,1.25916 5.5521,1.25837 8.7914,6.29344 3.7014,4.61534 3.7014,15.52413 0,11.74823 -4.1643,17.20301 -3.7013,5.03507 -10.1791,6.29344 -6.015,1.25916 -12.4928,1.25916 z m -87.44915,-202.6571 42.56745,0.4158 49.9709,-1.6781 q 7.4036,0 13.4185,1.6781 6.4778,1.25916 10.1792,6.71316 4.1642,5.03506 4.1642,16.78329 0,10.90879 -3.7014,16.36357 -3.2393,5.45479 -9.2542,7.13288 -6.0149,1.25838 -13.8806,1.25838 l -49.508,-0.83866 -45.34466,0.4158 q -11.567,0 -16.19412,-5.8745 -4.16424,-5.87373 -4.16424,-18.88111 0,-12.16795 5.08998,-17.62195 5.55207,-5.8745 16.65699,-5.8745 z"
       id="path1923"
       style="font-weight:500;font-stretch:semi-condensed;font-size:192px;font-family:'Fredoka SemiCondensed';-inkscape-font-specification:'Fredoka SemiCondensed,  Medium Semi-Condensed';white-space:pre;fill:#f1563e;fill-opacity:1;stroke-width:2.64583;stroke-linejoin:round;stroke-miterlimit:0" /><path
       d="m 1294.5049,636.88591 q -12.4928,0 -19.4335,-4.61534 -6.9406,-4.61535 -6.9406,-12.58767 l 2.3135,-9.23069 q -3.2385,5.03506 -10.642,11.3285 -6.9399,5.87451 -18.5077,10.48986 -11.567,4.61534 -28.6868,4.61534 -18.5077,0 -34.7026,-7.97232 -15.7313,-7.97153 -27.2991,-22.23729 -11.567,-14.26576 -18.0448,-32.72715 -6.4778,-18.8811 -6.4778,-40.69946 0,-21.39786 6.4778,-39.86003 6.4778,-18.46138 18.0448,-32.30742 12.0307,-13.84604 27.7619,-21.81758 15.7321,-7.97232 34.2398,-7.97232 15.2683,0 26.3732,3.77591 11.105,3.35697 18.9706,9.23069 7.8656,5.87451 12.0299,12.16795 l -1.3879,-7.13288 q 0.4629,-9.23069 6.4778,-13.84604 6.4778,-4.61535 19.8955,-4.61535 12.9556,0 18.5085,3.7767 5.5521,3.35618 6.9399,9.64962 1.3886,5.87451 1.3886,13.00739 v 153.98532 q 0,7.13288 -1.3886,13.0066 -1.3878,5.8745 -7.4028,9.23069 -5.5528,3.35697 -18.5076,3.35697 z m -69.8673,-48.671 q 13.4185,0 22.2099,-7.13288 9.2534,-7.13288 13.8805,-19.30082 4.6271,-12.16795 4.6271,-28.1118 0,-15.94385 -4.6271,-28.1118 -4.6271,-12.16795 -13.8805,-18.88111 -9.2543,-7.13288 -23.1348,-7.13288 -12.9556,0 -22.6727,7.13288 -9.2535,7.13288 -14.8063,19.30083 -5.5521,12.16795 -5.5521,28.53152 0,15.52413 5.5521,27.69208 5.5528,12.16794 15.2691,19.30082 10.1792,6.71316 23.1348,6.71316 z"
       id="path1925"
       style="font-weight:500;font-stretch:semi-condensed;font-size:192px;font-family:'Fredoka SemiCondensed';-inkscape-font-specification:'Fredoka SemiCondensed,  Medium Semi-Condensed';white-space:pre;fill:#f1563e;fill-opacity:1;stroke-width:2.64583;stroke-linejoin:round;stroke-miterlimit:0" /><path
       d="m 1392.1332,637.72535 q -12.4927,0 -18.5077,-3.77669 -5.5528,-3.35619 -6.9406,-9.23069 -1.3879,-5.87372 -1.3879,-13.0066 v -155.6642 q 0,-7.55181 1.3879,-13.0066 1.3878,-5.87451 6.9406,-8.81097 6.015,-3.35698 18.9706,-3.35698 12.4927,0 18.0448,2.93726 6.0149,2.93725 7.4035,7.5526 1.8507,4.19562 1.8507,8.39125 l -2.7764,6.71316 q 2.3135,-4.61535 6.0149,-9.23069 3.7014,-5.03507 9.2542,-9.2307 6.015,-4.19562 13.4177,-6.71316 7.8657,-2.93725 18.0456,-2.93725 4.1643,0 9.2535,0.83944 5.552,0.83866 10.642,2.51753 5.09,1.6781 9.2542,4.61535 4.1643,2.51753 6.4778,6.29344 2.7757,3.77591 2.7757,8.81097 0,13.42711 -6.4778,23.07674 -6.4778,9.23069 -16.657,9.23069 -5.5521,0 -8.7914,-0.83865 -3.2385,-1.25916 -5.552,-2.51754 -2.3136,-1.67809 -6.015,-2.51753 -3.7013,-1.25837 -10.642,-1.25837 -5.5521,0 -10.6421,1.67809 -4.6263,1.67809 -8.7913,5.454 -3.7014,3.35697 -6.015,8.39204 -2.3135,5.03507 -2.3135,10.90879 v 109.50994 q 0,7.13288 -1.3878,13.00739 -1.3879,5.45478 -7.4028,8.81097 -6.0149,3.35697 -19.4334,3.35697 z"
       id="path1927"
       style="font-weight:500;font-stretch:semi-condensed;font-size:192px;font-family:'Fredoka SemiCondensed';-inkscape-font-specification:'Fredoka SemiCondensed,  Medium Semi-Condensed';white-space:pre;fill:#f99f34;stroke-width:2.64583;stroke-linejoin:round;stroke-miterlimit:0" /><path
       d="m 1683.6304,636.88591 q -12.4927,0 -19.4326,-4.61534 -6.9407,-4.61535 -6.9407,-12.58767 l 2.3136,-9.23069 q -3.2393,5.03506 -10.6421,11.3285 -6.9406,5.87451 -18.5076,10.48986 -11.5678,4.61534 -28.6869,4.61534 -18.5084,0 -34.7026,-7.97232 -15.7312,-7.97153 -27.299,-22.23729 -11.567,-14.26576 -18.0448,-32.72715 -6.4778,-18.8811 -6.4778,-40.69946 0,-21.39786 6.4778,-39.86003 6.4778,-18.46138 18.0448,-32.30742 12.0299,-13.84604 27.7619,-21.81758 15.7313,-7.97232 34.2397,-7.97232 15.2684,0 26.3733,3.77591 11.1049,3.35697 18.9706,9.23069 7.8656,5.87451 12.0298,12.16795 l -1.3878,-7.13288 q 0.4629,-9.23069 6.4778,-13.84604 6.4778,-4.61535 19.8955,-4.61535 12.9556,0 18.5077,3.7767 5.5528,3.35618 6.9406,9.64962 1.3879,5.87451 1.3879,13.00739 v 153.98532 q 0,7.13288 -1.3879,13.0066 -1.3878,5.8745 -7.4027,9.23069 -5.5529,3.35697 -18.5085,3.35697 z m -69.8664,-48.671 q 13.4177,0 22.209,-7.13288 9.2543,-7.13288 13.8814,-19.30082 4.6263,-12.16795 4.6263,-28.1118 0,-15.94385 -4.6263,-28.1118 -4.6271,-12.16795 -13.8814,-18.88111 -9.2534,-7.13288 -23.1348,-7.13288 -12.9556,0 -22.6719,7.13288 -9.2534,7.13288 -14.8063,19.30083 -5.552,12.16795 -5.552,28.53152 0,15.52413 5.552,27.69208 5.5529,12.16794 15.2692,19.30082 10.1792,6.71316 23.1348,6.71316 z"
       id="path1929"
       style="font-weight:500;font-stretch:semi-condensed;font-size:192px;font-family:'Fredoka SemiCondensed';-inkscape-font-specification:'Fredoka SemiCondensed,  Medium Semi-Condensed';white-space:pre;fill:#f99f34;stroke-width:2.64583;stroke-linejoin:round;stroke-miterlimit:0" /></g></svg>
