<?xml version="1.0" encoding="UTF-8" standalone="no"?>
<!-- Created with Inkscape (http://www.inkscape.org/) -->

<svg
   width="161.15625"
   height="258"
   viewBox="0 0 42.639257 68.2625"
   version="1.1"
   id="svg5"
   xml:space="preserve"
   xmlns="http://www.w3.org/2000/svg"
   xmlns:svg="http://www.w3.org/2000/svg"><defs
     id="defs2"><linearGradient
       id="linearGradient6950"><stop
         style="stop-color:#f99f34;stop-opacity:1;"
         offset="0"
         id="stop6948" /></linearGradient></defs><g
     id="g34"
     transform="matrix(0.13396373,0,0,0.13396373,526.42022,-100.36842)"><path
       d="m -3770.4272,749.22085 c -63.2341,0.11387 -120.4022,37.65455 -145.6366,95.63551 25.2344,57.98095 82.4025,95.52163 145.6366,95.6355 -17.7431,2e-4 -32.1269,-14.38358 -32.1267,-32.12672 10e-5,-17.74294 14.3838,-32.1264 32.1267,-32.1262 17.7428,9e-5 32.1261,14.38346 32.1262,32.1262 h 62.7548 64.2633 c -0.025,-21.93726 -4.5844,-43.63266 -13.393,-63.72376 -25.3161,-57.93494 -82.5266,-95.38954 -145.7513,-95.42053 z"
       style="fill:#00a8a8;fill-opacity:1;stroke:none;stroke-width:2.11667"
       id="path32" /><path
       d="m -3916.0638,844.85636 c -8.8191,20.01631 -13.4174,41.63596 -13.5077,63.50878 0.2317,34.58995 11.7272,68.163 32.7458,95.63556 29.8919,39.7601 76.6559,63.2566 126.3985,63.5087 63.2249,0.031 120.4356,37.4854 145.7518,95.4206 8.7506,-19.9584 13.309,-41.5015 13.3925,-63.2938 -0.01,-34.7114 -11.3688,-68.4678 -32.3448,-96.1244 -30.0786,-39.68818 -77.0012,-63.00896 -126.7995,-63.01994 -63.234,-0.11387 -120.4022,-37.65466 -145.6366,-95.6355 z"
       style="fill:#f1563e;fill-opacity:1;stroke:none;stroke-width:2.11667"
       id="path33" /><path
       d="m -3897.0024,1004.0006 c -20.9554,27.4948 -32.3882,61.0658 -32.5691,95.6355 0.1922,21.8956 4.9008,43.5162 13.8312,63.5088 25.1873,57.8737 82.1966,95.3934 145.3131,95.6355 63.3543,-0.2351 120.5353,-38.0263 145.5854,-96.2184 -25.4028,-57.7359 -82.5083,-95.0199 -145.5854,-95.0526 -49.8049,-0.197 -96.6457,-23.6993 -126.5752,-63.5088 z m 126.5752,63.5093 a 32.126369,32.126369 0 0 1 32.1262,32.1262 32.126369,32.126369 0 0 1 -32.1262,32.1262 32.126369,32.126369 0 0 1 -32.1262,-32.1262 32.126369,32.126369 0 0 1 32.1262,-32.1262 z"
       style="fill:#f99f34;fill-opacity:1;stroke:none;stroke-width:2.11667"
       id="path34" /></g></svg>
